<?xml version="1.0" encoding="utf-8"?>
<!-- Generator: Adobe Illustrator 25.3.1, SVG Export Plug-In . SVG Version: 6.00 Build 0)  -->
<svg version="1.1" id="Capa_1" xmlns="http://www.w3.org/2000/svg" xmlns:xlink="http://www.w3.org/1999/xlink" x="0px" y="0px"
	 viewBox="0 0 100 42.99" style="enable-background:new 0 0 100 42.99;" xml:space="preserve">
<style type="text/css">
	.st0{fill:#FFFFFF;}
	.st1{fill:#A7815C;}
	.st2{display:none;}
	.st3{display:inline;fill:#90C2E9;}
	.st4{display:inline;}
	.st5{fill:#57AF39;}
	.st6{fill:#7ABA66;}
	.st7{fill:#7ABB68;}
	.st8{fill:#56AE39;}
	.st9{fill:#7CBB69;}
	.st10{fill:#7CBB6A;}
	.st11{fill:#010101;}
	.st12{fill:#7CBA6B;}
	.st13{fill:#7DBA6B;}
	.st14{fill:#040404;}
	.st15{fill:#1B211A;}
	.st16{fill:#087F09;}
	.st17{fill:#5D9EA5;}
	.st18{fill:url(#SVGID_9_);}
	.st19{fill:url(#SVGID_10_);}
	.st20{fill:url(#SVGID_11_);}
	.st21{clip-path:url(#SVGID_13_);}
	.st22{clip-path:url(#SVGID_13_);fill:#087F09;}
	.st23{fill:url(#SVGID_16_);}
	.st24{clip-path:url(#SVGID_20_);fill:#FFFFFF;}
	.st25{fill:#EFEFEF;}
</style>
<g>
	<path class="st16" d="M37.05,15.71c0-0.09,0.02-0.18,0.09-0.24c0.15-0.17,0.3-0.34,0.45-0.51c0.04-0.04,0.08-0.08,0.11-0.13
		c-8.53,0.45-15.22,1.43-18.37,2.71C23.74,16.68,29.88,16.04,37.05,15.71z M89.68,18.62c-3.15-1.39-9.92-2.58-18.58-3.29
		c0.02,0.03,0.04,0.06,0.06,0.09c0.08,0.11,0.17,0.22,0.26,0.34c0.11,0.14,0.17,0.3,0.09,0.46C78.89,16.75,85.2,17.6,89.68,18.62z"
		/>
	<path class="st16" d="M69.19,15.84c0,0.01-0.01,0.03-0.01,0.04c-0.07,0.18-0.24,0.19-0.4,0.19c-1.21,0.01-2.42,0.12-3.63,0.21
		c-1.03,0.08-2.04,0.23-3.05,0.44c-0.24,0.05-0.4-0.03-0.53-0.25c-0.2-0.32-0.4-0.64-0.61-0.96c-0.2-0.31-0.4-0.62-0.61-0.93
		c-0.65-0.96-1.31-1.9-1.98-2.85c-1.01-1.43-2.04-2.85-3.06-4.27c-1.2-1.66-2.4-3.32-3.56-5.01c-0.01-0.01-0.01-0.01-0.01-0.02
		c-0.35-0.48-0.59-0.51-0.99-0.09c-0.53,0.58-1.04,1.19-1.57,1.78c-1.06,1.19-2.12,2.39-3.18,3.59c-1.12,1.27-2.25,2.54-3.38,3.8
		c-0.03,0.03-0.06,0.06-0.09,0.09c-0.04,0.04-0.07,0.13-0.16,0.04c-0.07-0.07-0.06-0.13-0.01-0.21c0.2-0.26,0.41-0.53,0.6-0.8
		c1.18-1.57,2.36-3.13,3.54-4.71c1.27-1.68,2.53-3.36,3.8-5.04c0.16-0.21,0.3-0.43,0.47-0.64c0.15-0.19,0.35-0.27,0.6-0.26
		c0.32,0.04,0.63,0.19,0.95,0.3C54.69,1.16,57.05,2,59.42,2.8c0.92,0.32,1.58,0.93,2.13,1.74c1.41,2.09,2.87,4.16,4.31,6.23
		c0.97,1.4,1.94,2.8,2.92,4.19c0.02,0.03,0.04,0.06,0.06,0.09c0.08,0.11,0.18,0.22,0.26,0.33C69.2,15.52,69.26,15.67,69.19,15.84z"
		/>
	<linearGradient id="SVGID_2_" gradientUnits="userSpaceOnUse" x1="51.4991" y1="9.9329" x2="51.9508" y2="13.7275">
		<stop  offset="0" style="stop-color:#FEEF18"/>
		<stop  offset="1" style="stop-color:#F67D38"/>
	</linearGradient>
	<circle style="fill:url(#SVGID_2_);" cx="51.81" cy="12.58" r="2.69"/>
	<g>
		<path class="st16" d="M10.25,19.4c0.71,0.29,1.47,0.15,2.2,0.28c1.62,0.28,3.17,0.7,4.44,1.81c1.64,1.44,1.64,3.65,0,5.08
			c-2.1,1.83-6.29,2.39-8.79,1.17C7.43,27.42,6.84,27,6.49,26.3c-0.11-0.22-0.28-0.47-0.06-0.67c0.18-0.17,0.41-0.01,0.61,0.09
			c2.45,1.18,4.92,0.93,7.38,0.05c0.77-0.27,1.57-0.64,1.63-1.61c0.06-1.04-0.74-1.49-1.54-1.84c-3.69-1.61-8.58-0.95-11.05,1.93
			c-1.52,1.76-1.98,3.79-1.22,5.98c0.79,2.27,2.61,3.39,4.87,3.78c2.52,0.44,4.83-0.1,6.84-1.76c0.28-0.23,0.44-0.47,0.48-0.86
			c0.08-0.73,0.23-1.46,0.38-2.18c0.09-0.42,0.12-0.94,0.78-0.84c0.62,0.09,1.24,0.71,1.16,1.22c-0.31,2.04-0.64,4.08-0.97,6.11
			c-0.03,0.17-0.08,0.34-0.15,0.49c-0.11,0.24-0.19,0.53-0.54,0.52c-0.37,0-0.42-0.31-0.49-0.56c-0.16-0.54-0.22-1.11-0.24-1.67
			c-0.01-0.29,0.03-0.59-0.14-0.93c-1.38,1.1-2.95,1.73-4.67,2.02c-4.01,0.7-8.21-1.71-9.26-5.35c-0.94-3.25,0.48-6.76,3.56-8.82
			c1.7-1.13,3.58-1.71,5.6-1.88c0.17-0.01,0.4,0.13,0.51-0.14C10.05,19.4,10.15,19.4,10.25,19.4z"/>
		<path class="st16" d="M100,41.73c-0.2,0.26-0.44,0.28-0.7,0.28c-8.32-0.01-16.64,0-24.97,0c-0.11,0-0.22,0.01-0.33-0.01
			c-0.18-0.04-0.29-0.18-0.29-0.45c0-0.27,0.1-0.43,0.28-0.47c0.16-0.03,0.33-0.02,0.49-0.02c8.23,0,16.46,0,24.69,0
			c0.29,0,0.57-0.02,0.82,0.23C100,41.43,100,41.58,100,41.73z"/>
		<path class="st16" d="M88.8,32.41c-0.23,0.43-0.42,0.89-0.76,1.26c-0.74,0.81-1.7,0.69-2.22-0.28c-0.06-0.1-0.1-0.22-0.17-0.38
			c-0.49,0.58-0.82,1.27-1.64,1.37c-0.79,0.1-1.08-0.13-1.54-1.35c-0.46,0.72-1.01,1.29-1.89,1.22c-0.85-0.07-1.34-0.65-1.67-1.46
			c-0.43,0.48-0.66,1.11-1.26,1.34c-0.68,0.27-1.18-0.09-1.66-0.6c-0.44,0.9-0.93,1.72-2.06,1.56c-1.06-0.15-1.32-1.06-1.63-1.92
			c-0.28,0.31-0.52,0.63-0.82,0.9c-0.88,0.78-1.81,0.51-2.12-0.62c-0.22-0.8-0.18-1.61,0-2.41c0.06-0.25,0.09-0.51,0.13-0.79
			c-0.42,0-0.37,0.31-0.43,0.52c-0.24,0.8-0.49,1.6-0.9,2.33c-0.74,1.32-1.52,1.46-2.65,0.49c-0.03,0.02-0.08,0.04-0.09,0.08
			c-0.58,1.14-1.12,1.56-1.98,1.43c-0.99-0.15-1.33-0.95-1.56-1.76c-0.35-1.27-0.26-2.53,0.23-3.76c0.2-0.48,0.48-0.91,0.89-1.24
			c0.45-0.36,0.97-0.55,1.51-0.36c0.69,0.24,1.28,0.71,2.09,0.7c0.41,0,0.52,0.52,0.43,0.95c-0.17,0.9-0.27,1.8-0.22,2.72
			c0.01,0.22-0.08,0.57,0.23,0.62c0.24,0.04,0.33-0.26,0.41-0.46c0.31-0.69,0.63-1.38,0.78-2.14c0.05-0.26,0.09-0.49-0.01-0.77
			c-0.16-0.46,0.02-0.88,0.44-1.15c0.23-0.15,0.49-0.22,0.77-0.06c0.26,0.16,0.3,0.42,0.21,0.65c-0.2,0.51,0.1,0.44,0.42,0.43
			c1.11-0.05,1.15,0.01,0.94,1.08c-0.15,0.75-0.3,1.5-0.27,2.27c0.01,0.19-0.03,0.43,0.23,0.48c0.21,0.04,0.27-0.18,0.34-0.33
			c0.46-0.84,0.81-1.73,1.05-2.66c0.21-0.8,0.55-1.52,1.24-2.03c0.72-0.53,1.58-0.49,2.21,0.13c0.17,0.17,0.28,0.22,0.55,0.19
			c0.97-0.14,1.33,0.24,1.16,1.23c-0.14,0.83-0.22,1.66-0.19,2.5c0.01,0.23-0.06,0.58,0.2,0.65c0.3,0.09,0.36-0.28,0.45-0.48
			c0.31-0.66,0.62-1.33,0.75-2.07c0.04-0.19,0.11-0.38,0.17-0.56c0.61-1.72,1.76-2.26,3.49-1.59c0.1-1.31,0.2-2.6,0.3-3.89
			c0.06-0.81,0.7-1.21,1.37-0.84c0.43,0.23,0.43,0.58,0.37,1.01c-0.31,2.34-0.58,4.69-0.53,7.06c0.01,0.53-0.13,1.39,0.34,1.46
			c0.57,0.09,0.65-0.78,0.87-1.27c0.34-0.77,0.56-1.57,0.56-2.42c0-0.64,0.37-0.88,0.96-0.81c0.56,0.07,0.82,0.42,0.71,0.99
			c-0.17,0.95-0.26,1.9-0.22,2.86c0.01,0.21-0.05,0.51,0.22,0.56c0.26,0.04,0.34-0.25,0.41-0.45c0.34-0.9,0.89-1.74,0.77-2.79
			c-0.04-0.4,0.23-0.71,0.75-0.73c0.95-0.02,1.85-0.27,2.68-0.73c0.34-0.19,0.64-0.21,0.95,0.05c0.29,0.24,0.42,0.55,0.36,0.91
			c-0.06,0.4-0.41,0.44-0.72,0.51c-0.59,0.14-1.18,0.28-1.92,0.46c0.8,0.29,1.44,0.57,1.93,1.09c0.52,0.54,0.69,1.18,0.5,1.9
			c-0.24,0.94-1.43,1.58-2.62,1.42c-1.05-0.14-1.51-0.8-1.53-2.21c0.08-0.09,0.17-0.18,0.25-0.26c0.35-0.34,0.78-0.47,1.22-0.29
			c0.42,0.17,0.24,0.59,0.24,0.91c0,0.15,0.01,0.3,0.05,0.44c0.07,0.24,0.18,0.49,0.49,0.44c0.27-0.05,0.4-0.25,0.42-0.53
			c0.02-0.31-0.06-0.59-0.2-0.85c-0.43-0.8-1.12-1.27-1.98-1.6C89.19,31.26,88.99,31.84,88.8,32.41z M65.19,30.74
			c-0.02-0.17-0.03-0.46-0.09-0.75c-0.07-0.35-0.06-0.79-0.54-0.85c-0.45-0.05-0.65,0.31-0.8,0.64c-0.54,1.17-0.67,2.4-0.4,3.66
			c0.06,0.28,0.16,0.6,0.52,0.63c0.32,0.03,0.48-0.23,0.61-0.46C64.97,32.77,65.15,31.84,65.19,30.74z M75.69,30.8
			c-0.02-0.22-0.03-0.54-0.09-0.85c-0.06-0.33-0.08-0.73-0.51-0.8c-0.45-0.07-0.66,0.28-0.82,0.62c-0.56,1.19-0.7,2.44-0.4,3.73
			c0.06,0.26,0.17,0.54,0.48,0.59c0.32,0.05,0.49-0.2,0.62-0.44C75.46,32.8,75.63,31.86,75.69,30.8z M80.19,31.77
			c0.03,0.21,0.05,0.51,0.11,0.79c0.07,0.33,0.14,0.71,0.58,0.75c0.38,0.04,0.56-0.26,0.71-0.54c0.53-0.98,0.72-2.03,0.48-3.13
			c-0.06-0.26-0.14-0.54-0.46-0.62c-0.35-0.09-0.56,0.14-0.74,0.37C80.36,30.07,80.27,30.88,80.19,31.77z"/>
		<path class="st16" d="M53.18,21.69c-3.03-0.06-5.88,0.73-8.68,1.77c-0.48,0.18-0.96,0.39-1.49,0.4c-0.19,0-0.42,0.05-0.53-0.16
			c-0.12-0.23,0.02-0.42,0.17-0.59c0.26-0.3,0.55-0.56,0.88-0.77c2.89-1.86,6.11-2.51,9.48-2.49c2.55,0.02,5.05,0.41,7.39,1.5
			c1.11,0.52,2.1,1.22,2.48,2.48c0.45,1.48-0.19,2.98-1.71,4.07c-1.65,1.19-3.57,1.72-5.52,2.14c-0.93,0.2-1.89,0.34-2.83,0.48
			c-0.42,0.06-0.6,0.19-0.62,0.68c-0.07,1.35-0.16,2.7-0.53,4.01c-0.05,0.19-0.1,0.38-0.18,0.56c-0.08,0.18-0.18,0.36-0.42,0.37
			c-0.26,0.01-0.29-0.21-0.36-0.4c-0.37-1.04-0.39-2.12-0.39-3.2c0-1.64,0-1.62-1.66-1.48c-1.64,0.14-3.29,0.24-4.93,0.32
			c-0.4,0.02-1.04,0.06-1.09-0.35c-0.06-0.51,0.6-0.45,0.97-0.54c1.87-0.44,3.81-0.44,5.7-0.73c1.09-0.16,1.09-0.14,1.15-1.24
			c0.06-1.06,0.13-2.11,0.35-3.15c0.08-0.35,0.09-0.85,0.64-0.86c0.57-0.01,0.91,0.31,1.08,0.83c0.21,0.65,0.16,1.31,0.08,1.98
			c-0.06,0.49-0.15,0.97-0.23,1.46c-0.05,0.28-0.05,0.47,0.35,0.4c2.34-0.37,4.65-0.81,6.75-1.97c0.5-0.27,0.95-0.62,1.31-1.07
			c0.78-0.97,0.67-2.01-0.32-2.76c-1.2-0.91-2.63-1.18-4.06-1.43C55.35,21.75,54.26,21.7,53.18,21.69z"/>
		<path class="st16" d="M33.76,31.07c0.26-0.47,0.47-0.85,0.68-1.22c0.25-0.43,0.65-0.58,1.11-0.61c0.57-0.02,0.83,0.17,0.66,0.8
			c-0.17,0.64-0.2,1.31-0.11,1.97c0.02,0.13-0.03,0.32,0.15,0.38c0.17,0.05,0.27-0.09,0.36-0.2c0.44-0.53,0.79-1.12,1.05-1.77
			c0.11-0.29,0.24-0.69,0.65-0.51c0.37,0.17,0.22,0.55,0.11,0.84c-0.31,0.83-0.76,1.59-1.34,2.27c-0.4,0.47-0.89,0.71-1.5,0.54
			c-0.57-0.17-0.77-0.66-0.87-1.18c-0.07-0.36-0.06-0.73-0.09-1.19c-0.46,0.57-0.57,1.21-0.66,1.82c-0.1,0.66-0.31,1.07-1.05,1.04
			c-0.8-0.04-0.77-0.6-0.75-1.16c0-0.07-0.02-0.14-0.04-0.29c-0.26,0.35-0.48,0.67-0.72,0.96c-0.43,0.52-0.94,0.94-1.59,1.16
			c-1.26,0.43-2.19-0.02-2.64-1.25c-0.07-0.2-0.05-0.44-0.25-0.62c-0.83,1.17-1.75,2.18-3.36,1.98c-0.97-0.12-1.26-0.91-1.55-1.72
			c-0.24,0.29-0.47,0.57-0.71,0.83c-0.41,0.45-0.91,0.7-1.52,0.52c-0.58-0.17-0.69-0.7-0.81-1.22c-0.19-0.82-0.06-1.61,0.09-2.41
			c0.04-0.19,0.14-0.37,0.01-0.57c-0.07,0.01-0.16,0-0.2,0.04c-0.21,0.21-0.29,0.66-0.71,0.49c-0.38-0.15-0.11-0.5-0.15-0.76
			c-0.05-0.35-0.29-0.67-0.09-1.06c0.21-0.41,0.51-0.68,0.99-0.62c0.5,0.07,0.43,0.47,0.37,0.81c-0.07,0.43,0.19,0.34,0.43,0.33
			c1.15-0.03,1.14-0.03,0.93,1.13c-0.14,0.75-0.28,1.5-0.24,2.27c0.01,0.15-0.01,0.39,0.2,0.42c0.2,0.03,0.27-0.17,0.35-0.32
			c0.52-0.95,0.9-1.96,1.13-3.02c0.17-0.77,0.44-1.51,0.91-2.16c0.66-0.9,1.54-0.96,2.31-0.16c0.48,0.5,0.72,1.11,0.76,1.79
			c0.04,0.74-0.43,1.22-1.36,1.51c-0.37,0.11-0.93-0.02-1.08,0.29c-0.18,0.39-0.1,0.91-0.08,1.38c0.02,0.44,0.04,0.93,0.53,1.12
			c0.46,0.18,0.81-0.15,1.1-0.45c0.92-0.95,1.57-2.07,1.93-3.35c0.21-0.76,0.46-1.51,0.93-2.15c0.66-0.9,1.63-0.94,2.36-0.09
			c0.35,0.4,0.56,0.87,0.66,1.38c0.2,0.96-0.27,1.57-1.41,1.87c-1.12,0.3-1.12,0.3-1.09,1.45c0,0.2,0.01,0.4,0.04,0.59
			c0.17,0.85,0.72,1.08,1.37,0.48c1.16-1.07,2.02-2.34,2.16-3.98c0.04-0.47,0.11-0.94,0.6-1.19c0.34-0.18,0.69-0.25,1.05-0.04
			c0.4,0.23,0.26,0.59,0.21,0.92C33.91,29.77,33.7,30.35,33.76,31.07z M29.73,28.9c-0.01-0.09,0.07-0.53-0.22-0.59
			c-0.34-0.06-0.31,0.41-0.44,0.65c-0.08,0.15-0.11,0.32-0.15,0.49c-0.03,0.16-0.15,0.39,0.02,0.47c0.19,0.09,0.43,0.01,0.6-0.15
			C29.73,29.58,29.76,29.34,29.73,28.9z M24.72,28.9c-0.02-0.14,0.01-0.54-0.23-0.59c-0.33-0.07-0.31,0.35-0.42,0.57
			c-0.07,0.15-0.13,0.32-0.16,0.49c-0.03,0.19-0.23,0.47,0.05,0.56c0.25,0.08,0.53-0.03,0.67-0.33
			C24.71,29.41,24.72,29.22,24.72,28.9z"/>
		<path class="st16" d="M13.52,41.06c4.21,0,8.42,0,12.62,0c0.15,0,0.3,0,0.45,0.01c0.22,0.02,0.35,0.18,0.34,0.47
			c-0.01,0.28-0.13,0.45-0.36,0.46c-0.13,0.01-0.26,0-0.39,0c-8.47,0-16.94,0-25.41,0c-0.17,0-0.34,0.01-0.5-0.04
			c-0.16-0.05-0.24-0.22-0.24-0.44c0-0.22,0.08-0.39,0.25-0.43c0.16-0.04,0.33-0.03,0.5-0.03C5.03,41.06,9.27,41.06,13.52,41.06z"/>
		<path class="st16" d="M93.71,31.78c0.05-1.37,0.27-2.62,0.96-3.74c0.79-1.27,1.99-1.27,2.79-0.01c0.95,1.51,0.46,2.7-1.33,2.97
			c-0.67,0.1-0.79,0.39-0.78,0.92c0.01,0.34,0.01,0.69,0.07,1.03c0.15,0.87,0.65,1.07,1.35,0.54c0.58-0.44,0.98-1.02,1.33-1.65
			c0.29-0.54,0.55-1.09,0.82-1.64c0.12-0.25,0.32-0.4,0.59-0.29c0.27,0.1,0.24,0.37,0.18,0.57c-0.4,1.38-0.93,2.69-2.07,3.65
			c-0.3,0.26-0.64,0.46-1.02,0.58c-1.43,0.47-2.49-0.23-2.79-1.84C93.74,32.49,93.73,32.09,93.71,31.78z M96.59,29.01
			c-0.14-0.19,0.04-0.63-0.29-0.7c-0.31-0.06-0.3,0.37-0.41,0.59c-0.09,0.17-0.14,0.37-0.17,0.56c-0.03,0.16-0.16,0.38,0.03,0.46
			c0.17,0.08,0.39,0.01,0.55-0.12C96.54,29.62,96.55,29.34,96.59,29.01z"/>
		<path class="st16" d="M86.99,25.46c0.55,0.07,1.19,0.17,1.27,0.9c0.07,0.66-0.44,0.97-0.99,1.18c-0.5,0.18-1,0.17-1.51,0.01
			c-0.35-0.11-0.61-0.31-0.68-0.69c-0.08-0.41,0.1-0.71,0.41-0.95C85.93,25.59,86.42,25.48,86.99,25.46z"/>
	</g>
	<g>
		<path class="st16" d="M56.75,11.5c-0.09,0.03-0.1-0.05-0.14-0.09c-0.35-0.45-0.71-0.9-1.06-1.35c-0.58-0.75-1.17-1.5-1.75-2.26
			c-0.51-0.67-1.02-1.34-1.54-2.01c-0.11-0.16-0.23-0.3-0.36-0.44c-0.22-0.23-0.42-0.24-0.66-0.03c-0.2,0.18-0.36,0.4-0.54,0.62
			c-1.6,1.93-3.21,3.86-4.84,5.77c-0.55,0.64-1.09,1.28-1.65,1.91c-0.3,0.34-0.46,0.74-0.51,1.17c-0.02,0.16-0.03,0.32-0.02,0.48
			c-0.01,0.13-0.01,0.27-0.02,0.41c0,0.03,0,0.06-0.01,0.1c-0.03,0.3-0.19,0.47-0.48,0.51c-0.21,0.03-0.41-0.02-0.61-0.03
			c-0.83-0.05-1.66-0.09-2.49-0.14c-0.09-0.01-0.22,0.05-0.27-0.09c-0.02-0.05-0.02-0.1-0.02-0.14c0-0.09,0.02-0.18,0.09-0.25
			c0.14-0.17,0.29-0.34,0.44-0.51c0.04-0.04,0.07-0.09,0.11-0.13c0.99-1.14,1.98-2.29,2.98-3.44c1.33-1.54,2.66-3.07,3.99-4.61
			c1.11-1.29,2.22-2.58,3.33-3.87c0.37-0.43,0.58-0.43,0.9,0.05c0.72,1.08,1.42,2.16,2.13,3.24c1.04,1.58,2.09,3.16,3.13,4.73
			C57,11.25,56.93,11.44,56.75,11.5z"/>
	</g>
	<g>
		<path class="st16" d="M30.4,39.87c0.18-0.04,0.56-0.06,0.91-0.06c0.43,0,0.69,0.04,0.92,0.18c0.22,0.12,0.37,0.33,0.37,0.61
			c0,0.28-0.16,0.54-0.51,0.67v0.01c0.36,0.1,0.62,0.36,0.62,0.77c0,0.28-0.13,0.5-0.32,0.66c-0.23,0.18-0.61,0.28-1.22,0.28
			c-0.35,0-0.61-0.02-0.76-0.05V39.87z M31.1,41.06h0.23c0.37,0,0.57-0.15,0.57-0.38c0-0.24-0.18-0.36-0.5-0.36
			c-0.15,0-0.24,0.01-0.3,0.02V41.06z M31.1,42.44c0.07,0.01,0.15,0.01,0.27,0.01c0.32,0,0.6-0.12,0.6-0.45
			c0-0.31-0.28-0.44-0.63-0.44H31.1V42.44z"/>
		<path class="st16" d="M35.44,39.82v1.79c0,0.54,0.2,0.81,0.56,0.81c0.37,0,0.57-0.26,0.57-0.81v-1.79h0.7v1.75
			c0,0.96-0.48,1.42-1.3,1.42c-0.79,0-1.25-0.43-1.25-1.43v-1.74H35.44z"/>
		<path class="st16" d="M39.43,42.94v-3.11h0.82l0.65,1.14c0.18,0.33,0.37,0.72,0.51,1.07h0.01c-0.05-0.41-0.06-0.83-0.06-1.3v-0.91
			h0.65v3.11h-0.74l-0.67-1.2c-0.18-0.33-0.39-0.73-0.54-1.1l-0.01,0c0.02,0.41,0.03,0.85,0.03,1.36v0.94H39.43z"/>
		<path class="st16" d="M46.76,42.8c-0.22,0.07-0.63,0.18-1.04,0.18c-0.57,0-0.98-0.14-1.27-0.42c-0.29-0.27-0.44-0.67-0.44-1.13
			c0-1.03,0.76-1.63,1.78-1.63c0.4,0,0.71,0.08,0.86,0.15l-0.15,0.56c-0.17-0.07-0.38-0.13-0.73-0.13c-0.59,0-1.03,0.33-1.03,1.01
			c0,0.64,0.4,1.02,0.98,1.02c0.16,0,0.29-0.02,0.35-0.05v-0.65H45.6v-0.55h1.16V42.8z"/>
		<path class="st16" d="M49.58,42.14l-0.22,0.8h-0.73l0.95-3.11h0.92l0.97,3.11h-0.76l-0.24-0.8H49.58z M50.37,41.61l-0.19-0.66
			c-0.06-0.18-0.11-0.42-0.16-0.6H50c-0.05,0.18-0.09,0.42-0.14,0.6l-0.18,0.66H50.37z"/>
		<path class="st16" d="M53.42,39.82h0.71v2.52h1.24v0.59h-1.94V39.82z"/>
		<path class="st16" d="M60,41.35c0,1.02-0.62,1.64-1.53,1.64c-0.92,0-1.46-0.7-1.46-1.58c0-0.93,0.6-1.63,1.52-1.63
			C59.48,39.77,60,40.49,60,41.35z M57.75,41.39c0,0.61,0.29,1.04,0.76,1.04c0.48,0,0.75-0.45,0.75-1.06c0-0.56-0.27-1.04-0.75-1.04
			C58.03,40.33,57.75,40.79,57.75,41.39z"/>
		<path class="st16" d="M62.47,42.94l-0.74-3.11h0.75l0.24,1.28c0.07,0.37,0.13,0.78,0.19,1.09h0.01c0.05-0.34,0.12-0.71,0.2-1.09
			l0.26-1.28h0.75l0.25,1.31c0.07,0.37,0.12,0.7,0.17,1.04h0.01c0.05-0.35,0.12-0.71,0.18-1.08l0.25-1.28h0.72l-0.8,3.11h-0.76
			l-0.26-1.34c-0.06-0.31-0.11-0.6-0.15-0.96h-0.01c-0.06,0.35-0.11,0.65-0.18,0.96l-0.3,1.34H62.47z"/>
		<path class="st16" d="M67.6,42.21c0.19,0.1,0.48,0.19,0.78,0.19c0.32,0,0.49-0.13,0.49-0.34c0-0.19-0.15-0.3-0.52-0.44
			c-0.52-0.18-0.85-0.47-0.85-0.92c0-0.53,0.44-0.94,1.18-0.94c0.35,0,0.61,0.07,0.79,0.16l-0.16,0.57
			c-0.12-0.06-0.35-0.15-0.65-0.15c-0.31,0-0.45,0.14-0.45,0.3c0,0.2,0.18,0.29,0.58,0.44c0.55,0.2,0.81,0.49,0.81,0.93
			c0,0.52-0.4,0.97-1.26,0.97c-0.36,0-0.71-0.1-0.88-0.19L67.6,42.21z"/>
	</g>
</g>
</svg>
