<?xml version="1.0" encoding="utf-8"?>
<!-- Generator: Adobe Illustrator 25.3.1, SVG Export Plug-In . SVG Version: 6.00 Build 0)  -->
<svg version="1.1" id="Capa_1" xmlns="http://www.w3.org/2000/svg" xmlns:xlink="http://www.w3.org/1999/xlink" x="0px" y="0px"
	 viewBox="0 0 100 23.31" style="enable-background:new 0 0 100 23.31;" xml:space="preserve">
<style type="text/css">
	.st0{fill:#FFFFFF;}
	.st1{fill:#A7815C;}
	.st2{display:none;}
	.st3{display:inline;fill:#90C2E9;}
	.st4{display:inline;}
	.st5{fill:#57AF39;}
	.st6{fill:#7ABA66;}
	.st7{fill:#7ABB68;}
	.st8{fill:#56AE39;}
	.st9{fill:#7CBB69;}
	.st10{fill:#7CBB6A;}
	.st11{fill:#010101;}
	.st12{fill:#7CBA6B;}
	.st13{fill:#7DBA6B;}
	.st14{fill:#040404;}
	.st15{fill:#1B211A;}
	.st16{fill:#087F09;}
	.st17{fill:#5D9EA5;}
	.st18{fill:url(#SVGID_9_);}
	.st19{fill:url(#SVGID_10_);}
	.st20{fill:url(#SVGID_11_);}
	.st21{clip-path:url(#SVGID_13_);}
	.st22{clip-path:url(#SVGID_13_);fill:#087F09;}
	.st23{fill:url(#SVGID_16_);}
	.st24{clip-path:url(#SVGID_20_);fill:#FFFFFF;}
	.st25{fill:#EFEFEF;}
</style>
<g>
	<g>
		<g>
			<g>
				<g>
					<path class="st16" d="M17.32,2.41c-0.52-0.59-1.16-1.06-1.94-1.42c-0.78-0.36-1.62-0.61-2.54-0.77C11.92,0.08,11.08,0,10.3,0
						C8.95,0,7.65,0.21,6.41,0.64C5.17,1.07,4.07,1.66,3.12,2.43C2.17,3.2,1.41,4.12,0.85,5.2C0.28,6.27,0,7.46,0,8.75
						c0,1.17,0.24,2.22,0.72,3.13c0.48,0.91,1.11,1.69,1.88,2.33c0.78,0.64,1.65,1.13,2.63,1.46c0.97,0.33,1.96,0.5,2.95,0.5
						c1.07,0,2.15-0.19,3.24-0.57c1.1-0.38,2.07-0.94,2.92-1.69c0,0.3,0.01,0.65,0.03,1.04c0.02,0.39,0.06,0.75,0.11,1.1
						c0.05,0.34,0.13,0.63,0.22,0.86c0.09,0.23,0.21,0.34,0.37,0.34c0.26,0,0.46-0.23,0.61-0.7c0.14-0.46,0.27-1.05,0.37-1.77
						c0.1-0.72,0.2-1.5,0.31-2.35c0.11-0.85,0.25-1.67,0.43-2.44c0.01-0.12-0.04-0.27-0.17-0.43c-0.13-0.17-0.29-0.32-0.49-0.45
						c-0.2-0.13-0.39-0.21-0.58-0.25C15.35,8.81,15.21,8.86,15.12,9V8.98c-0.11,0.12-0.2,0.33-0.27,0.63
						c-0.08,0.3-0.14,0.62-0.21,0.96c-0.06,0.34-0.11,0.68-0.15,1.02c-0.04,0.34-0.07,0.59-0.08,0.78c-0.73,0.73-1.59,1.3-2.57,1.7
						c-0.98,0.4-2.07,0.61-3.26,0.61c-0.96,0-1.85-0.14-2.67-0.42c-0.82-0.28-1.53-0.68-2.14-1.19c-0.6-0.51-1.07-1.12-1.42-1.83
						c-0.34-0.71-0.51-1.5-0.51-2.36c0-1.14,0.25-2.15,0.74-3.02c0.49-0.87,1.14-1.6,1.93-2.18c0.79-0.59,1.69-1.03,2.68-1.33
						c1-0.3,2.01-0.45,3.03-0.45c0.41,0,0.95,0.04,1.61,0.13c0.66,0.08,1.31,0.23,1.94,0.43c0.63,0.21,1.18,0.48,1.63,0.82
						c0.46,0.34,0.69,0.78,0.69,1.31c0,0.3-0.11,0.58-0.32,0.82c-0.21,0.24-0.49,0.45-0.82,0.63c-0.34,0.18-0.71,0.32-1.12,0.45
						c-0.41,0.12-0.82,0.22-1.22,0.3c-0.4,0.08-0.78,0.13-1.12,0.16c-0.34,0.03-0.61,0.05-0.81,0.05c-0.69,0-1.34-0.06-1.95-0.17
						C8.12,6.7,7.54,6.5,6.99,6.19C6.69,6.04,6.49,6,6.41,6.07C6.32,6.13,6.3,6.25,6.35,6.42C6.4,6.59,6.48,6.77,6.6,6.96
						c0.12,0.19,0.23,0.33,0.32,0.42c0.53,0.53,1.19,0.91,1.96,1.14c0.78,0.23,1.58,0.34,2.42,0.34c0.64,0,1.35-0.08,2.14-0.24
						c0.78-0.16,1.52-0.41,2.2-0.75c0.69-0.34,1.26-0.79,1.74-1.34c0.47-0.55,0.71-1.2,0.71-1.96C18.09,3.72,17.83,3,17.32,2.41z"/>
					<path class="st16" d="M38.33,10.35c-0.09-0.02-0.19,0-0.29,0.05c-0.1,0.05-0.16,0.14-0.19,0.27c-0.06,0.2-0.16,0.43-0.29,0.7
						c-0.13,0.27-0.27,0.52-0.42,0.75c-0.15,0.24-0.3,0.44-0.46,0.61c-0.15,0.17-0.27,0.25-0.37,0.25c-0.08,0-0.13-0.11-0.16-0.33
						c-0.03-0.22-0.05-0.48-0.05-0.78c0-0.3,0.02-0.59,0.06-0.88c0.04-0.29,0.08-0.5,0.13-0.64c0.08-0.2,0.05-0.35-0.07-0.46
						c-0.12-0.11-0.28-0.16-0.48-0.17c-0.2-0.01-0.4,0.03-0.62,0.11c-0.21,0.08-0.38,0.2-0.5,0.35c-0.17,0.23-0.33,0.51-0.49,0.83
						c-0.16,0.33-0.3,0.7-0.42,1.11c-0.02-0.15-0.01-0.35,0.01-0.58c0.02-0.24,0.06-0.49,0.1-0.75c0.05-0.27,0.1-0.53,0.15-0.8
						c0.05-0.27,0.09-0.51,0.13-0.72c0.03-0.23-0.04-0.4-0.21-0.5c-0.17-0.11-0.36-0.15-0.58-0.14c-0.22,0.02-0.44,0.1-0.65,0.25
						c-0.21,0.15-0.34,0.38-0.39,0.69c-0.06,0.3-0.09,0.65-0.09,1.03c0,0.02,0,0.05,0,0.07c0,0,0,0,0,0
						c-0.03,0.11-0.1,0.28-0.21,0.51c-0.11,0.24-0.24,0.49-0.39,0.78c-0.15,0.28-0.33,0.58-0.53,0.88c-0.2,0.3-0.4,0.57-0.62,0.8
						c-0.21,0.23-0.43,0.41-0.66,0.54c-0.23,0.13-0.44,0.16-0.64,0.1c-0.15-0.05-0.27-0.15-0.35-0.32
						c-0.08-0.17-0.14-0.37-0.18-0.62c-0.04-0.24-0.05-0.52-0.05-0.82c0.01-0.3,0.03-0.62,0.08-0.94c0.17-0.01,0.36-0.04,0.58-0.07
						c0.22-0.03,0.44-0.08,0.65-0.15c0.21-0.07,0.41-0.16,0.59-0.26c0.18-0.11,0.33-0.24,0.46-0.41c0.15-0.2,0.22-0.47,0.19-0.82
						c-0.02-0.35-0.11-0.69-0.26-1.03c-0.15-0.33-0.37-0.63-0.65-0.88c-0.28-0.25-0.61-0.38-0.97-0.38c-0.38,0-0.73,0.19-1.04,0.57
						c-0.31,0.38-0.57,0.86-0.78,1.44c-0.13,0.35-0.22,0.72-0.3,1.11c-0.03,0.11-0.1,0.27-0.19,0.48c-0.11,0.24-0.24,0.49-0.39,0.78
						c-0.15,0.28-0.33,0.58-0.53,0.88c-0.2,0.3-0.4,0.57-0.62,0.8c-0.21,0.23-0.43,0.41-0.66,0.54c-0.23,0.13-0.44,0.16-0.64,0.1
						c-0.15-0.05-0.27-0.15-0.35-0.32c-0.08-0.17-0.14-0.37-0.18-0.62c-0.04-0.24-0.05-0.52-0.05-0.82c0.01-0.3,0.03-0.62,0.08-0.94
						c0.17-0.01,0.36-0.04,0.58-0.07c0.22-0.03,0.44-0.08,0.65-0.15c0.21-0.07,0.41-0.16,0.59-0.26c0.18-0.11,0.33-0.24,0.46-0.41
						c0.15-0.2,0.22-0.47,0.19-0.82c-0.02-0.35-0.11-0.69-0.26-1.03c-0.15-0.33-0.37-0.63-0.65-0.88c-0.28-0.25-0.61-0.38-0.97-0.38
						c-0.38,0-0.73,0.19-1.04,0.57c-0.31,0.38-0.57,0.86-0.78,1.44c-0.14,0.4-0.25,0.82-0.33,1.26c-0.04,0.17-0.1,0.37-0.19,0.62
						c-0.12,0.36-0.26,0.71-0.41,1.06c-0.15,0.35-0.3,0.66-0.45,0.93c-0.15,0.27-0.26,0.4-0.35,0.4c-0.14,0-0.22-0.12-0.25-0.37
						c-0.03-0.24-0.03-0.54,0-0.88c0.03-0.34,0.08-0.7,0.15-1.09c0.07-0.38,0.13-0.71,0.19-0.98c0.06-0.27,0.03-0.45-0.09-0.53
						c-0.12-0.08-0.27-0.11-0.46-0.1c-0.18,0.01-0.38,0.03-0.58,0.06c-0.21,0.03-0.35,0.02-0.45-0.02c0.12-0.29,0.17-0.55,0.14-0.79
						c-0.03-0.24-0.21-0.35-0.53-0.35c-0.18,0-0.35,0.06-0.49,0.17c-0.14,0.11-0.26,0.25-0.33,0.41c-0.08,0.16-0.11,0.33-0.09,0.51
						c0.02,0.18,0.09,0.34,0.23,0.48l-0.14,0.39c-0.06,0.14-0.06,0.25,0,0.33c0.06,0.08,0.14,0.14,0.25,0.16
						c0.11,0.02,0.21,0.01,0.31-0.05c0.1-0.05,0.16-0.14,0.19-0.26c0.02-0.09,0.05-0.17,0.09-0.25c0.08,0,0.15,0,0.23,0
						c0.08,0,0.15-0.01,0.23-0.02c-0.12,0.37-0.22,0.79-0.29,1.28c-0.07,0.49-0.08,0.95-0.03,1.38c0.05,0.43,0.15,0.81,0.32,1.12
						c0.17,0.31,0.43,0.48,0.8,0.49c0.32,0.02,0.61-0.06,0.87-0.24c0.26-0.17,0.49-0.41,0.71-0.7c0.15-0.2,0.28-0.42,0.4-0.65
						c0.11,0.55,0.31,1.01,0.6,1.38c0.3,0.38,0.73,0.57,1.28,0.57c0.46,0,0.87-0.1,1.25-0.3c0.37-0.2,0.7-0.45,0.99-0.74
						c0.29-0.3,0.54-0.62,0.74-0.98c0.05-0.08,0.09-0.16,0.13-0.24c0.01,0.08,0.02,0.17,0.04,0.25c0.11,0.58,0.31,1.06,0.62,1.44
						c0.3,0.38,0.73,0.57,1.28,0.57c0.46,0,0.87-0.1,1.25-0.3c0.37-0.2,0.7-0.45,0.99-0.74c0.29-0.3,0.54-0.62,0.74-0.98
						c0.11-0.19,0.21-0.38,0.3-0.56c0,0.06,0,0.12,0.01,0.18c0.01,0.37,0.01,0.68,0,0.94c-0.02,0.23,0.06,0.4,0.23,0.5
						c0.17,0.11,0.35,0.16,0.56,0.16c0.21,0,0.4-0.05,0.57-0.15c0.17-0.1,0.28-0.25,0.31-0.45c0.01-0.18,0.05-0.41,0.11-0.67
						c0.06-0.27,0.13-0.52,0.21-0.77c0.08-0.24,0.16-0.46,0.24-0.64c0.08-0.18,0.16-0.29,0.24-0.32c0.03,0.08,0.04,0.26,0.02,0.54
						c-0.02,0.28,0.01,0.57,0.07,0.87c0.06,0.3,0.19,0.56,0.38,0.8c0.19,0.24,0.51,0.35,0.95,0.35c0.26,0,0.53-0.13,0.8-0.4
						c0.27-0.27,0.53-0.57,0.75-0.93c0.23-0.35,0.43-0.71,0.59-1.07c0.17-0.37,0.27-0.65,0.32-0.87c0.03-0.14,0.01-0.25-0.05-0.33
						C38.5,10.41,38.42,10.36,38.33,10.35z M29.17,9.24c0.12-0.34,0.24-0.54,0.34-0.58c0.06-0.03,0.12,0.02,0.17,0.14
						c0.05,0.12,0.09,0.27,0.11,0.46c0.02,0.18,0.03,0.36,0.01,0.54c-0.02,0.18-0.05,0.31-0.11,0.4c-0.08,0.12-0.2,0.2-0.37,0.24
						c-0.17,0.04-0.34,0.06-0.5,0.06C28.93,10,29.05,9.58,29.17,9.24z M24.12,9.24c0.12-0.34,0.24-0.54,0.34-0.58
						c0.06-0.03,0.12,0.02,0.17,0.14c0.05,0.12,0.09,0.27,0.11,0.46c0.02,0.18,0.03,0.36,0.01,0.54c-0.02,0.18-0.05,0.31-0.11,0.4
						c-0.08,0.12-0.2,0.2-0.37,0.24c-0.17,0.04-0.34,0.06-0.5,0.06C23.89,10,24,9.58,24.12,9.24z"/>
					<path class="st16" d="M62.53,7.12c0.4-0.57,0.61-1.23,0.61-1.98c0-0.52-0.12-0.99-0.35-1.4c-0.24-0.42-0.55-0.79-0.95-1.11
						c-0.4-0.32-0.85-0.6-1.35-0.83c-0.5-0.24-1.02-0.44-1.55-0.61c-0.53-0.17-1.05-0.3-1.56-0.41c-0.51-0.11-0.97-0.19-1.38-0.25
						c-0.49-0.06-1-0.11-1.53-0.16c-0.53-0.05-1.04-0.07-1.53-0.07c-0.81,0-1.63,0.05-2.46,0.16c-0.83,0.11-1.64,0.26-2.44,0.47
						c-0.8,0.21-1.57,0.46-2.32,0.78c-0.75,0.31-1.43,0.68-2.06,1.11c-0.05,0.02-0.13,0.07-0.25,0.16c-0.12,0.09-0.25,0.2-0.38,0.32
						c-0.13,0.12-0.25,0.25-0.35,0.39c-0.11,0.14-0.16,0.26-0.16,0.37c0,0.18,0.18,0.27,0.55,0.27c0.12,0,0.26-0.02,0.42-0.06
						c0.16-0.04,0.39-0.11,0.69-0.21c0.3-0.1,0.69-0.23,1.18-0.4c0.49-0.17,1.12-0.39,1.9-0.66c0.96-0.26,1.93-0.47,2.91-0.63
						c0.98-0.16,1.98-0.24,2.98-0.24c0.47,0,1.01,0.02,1.61,0.06c0.6,0.04,1.21,0.11,1.83,0.21c0.62,0.1,1.22,0.23,1.8,0.39
						c0.59,0.16,1.11,0.36,1.56,0.59c0.46,0.24,0.83,0.51,1.11,0.82c0.28,0.31,0.42,0.67,0.42,1.08c0,0.52-0.18,0.98-0.53,1.38
						c-0.35,0.4-0.8,0.77-1.36,1.08c-0.56,0.32-1.18,0.59-1.86,0.82c-0.69,0.23-1.36,0.42-2.03,0.58c-0.67,0.16-1.3,0.29-1.88,0.39
						c-0.59,0.1-1.05,0.17-1.38,0.22c0.01-0.2,0.05-0.45,0.11-0.77c0.06-0.31,0.11-0.65,0.16-1.01c0.05-0.36,0.07-0.71,0.08-1.06
						c0.01-0.35-0.02-0.67-0.09-0.96c-0.07-0.29-0.19-0.53-0.38-0.71c-0.18-0.18-0.44-0.27-0.78-0.27c-0.17,0-0.3,0.11-0.4,0.33
						c-0.1,0.22-0.18,0.5-0.24,0.83c-0.06,0.34-0.11,0.7-0.15,1.11c-0.04,0.4-0.07,0.8-0.1,1.18c-0.03,0.38-0.06,0.72-0.08,1.03
						c-0.02,0.3-0.06,0.52-0.1,0.64c-0.62,0.09-1.23,0.18-1.83,0.26c-0.59,0.08-1.18,0.14-1.76,0.17c-0.21,0.03-0.55,0.07-1.01,0.11
						c-0.46,0.05-0.93,0.11-1.4,0.18c-0.48,0.08-0.9,0.17-1.26,0.27c-0.36,0.11-0.54,0.22-0.54,0.34c0,0.12,0.09,0.21,0.29,0.27
						c0.19,0.06,0.43,0.1,0.71,0.11c0.28,0.02,0.59,0.02,0.91,0c0.33-0.01,0.64-0.03,0.93-0.06c0.29-0.02,0.53-0.04,0.72-0.06
						c0.19-0.02,0.29-0.02,0.31,0c0.64-0.06,1.28-0.12,1.93-0.18c0.65-0.06,1.31-0.13,1.98-0.21c0,1.17,0.02,2.16,0.06,2.95
						c0.04,0.79,0.16,1.46,0.38,2.01c0.08,0.24,0.17,0.37,0.3,0.37c0.2,0,0.37-0.2,0.5-0.61c0.14-0.4,0.25-0.89,0.34-1.47
						c0.09-0.58,0.16-1.19,0.22-1.83c0.05-0.64,0.09-1.2,0.1-1.67c0.47-0.06,1.07-0.15,1.79-0.26c0.72-0.11,1.48-0.27,2.28-0.46
						c0.8-0.19,1.6-0.43,2.4-0.72c0.8-0.29,1.52-0.64,2.16-1.05C61.61,8.18,62.13,7.69,62.53,7.12z"/>
					<path class="st16" d="M85.96,8c0.37,0.12,0.74,0.16,1.12,0.11c0.2-0.03,0.39-0.08,0.57-0.16c0.18-0.08,0.34-0.17,0.48-0.29
						c0.14-0.11,0.24-0.24,0.31-0.39c0.07-0.14,0.09-0.3,0.06-0.47c-0.05-0.32-0.24-0.55-0.59-0.7c-0.35-0.14-0.75-0.18-1.19-0.1
						c-0.44,0.08-0.8,0.23-1.06,0.47C85.38,6.71,85.28,7,85.34,7.33C85.39,7.65,85.59,7.87,85.96,8z"/>
					<path class="st16" d="M92.95,8.7c-0.2-0.11-0.4-0.11-0.59,0c-0.41,0.24-0.88,0.44-1.4,0.58c-0.53,0.14-1.02,0.22-1.47,0.22
						c-0.23,0-0.4,0.07-0.51,0.22c-0.11,0.15-0.17,0.3-0.18,0.48c-0.01,0.16,0.02,0.32,0.08,0.47c-0.03,0.17-0.1,0.41-0.21,0.73
						c-0.11,0.32-0.22,0.64-0.34,0.96c-0.12,0.32-0.25,0.6-0.38,0.83c-0.13,0.24-0.24,0.35-0.33,0.35c-0.14,0-0.22-0.14-0.26-0.41
						c-0.04-0.27-0.05-0.6-0.03-0.98c0.01-0.38,0.05-0.78,0.1-1.19c0.05-0.41,0.11-0.75,0.17-1.03c0.05-0.24-0.02-0.45-0.18-0.62
						c-0.17-0.17-0.37-0.27-0.59-0.3c-0.23-0.03-0.44,0.02-0.63,0.16c-0.19,0.14-0.29,0.39-0.29,0.75c0,0.23-0.01,0.47-0.01,0.71
						c0,0.01-0.01,0.02-0.01,0.02c-0.03,0.15-0.1,0.39-0.19,0.72c-0.1,0.33-0.22,0.66-0.35,1.01c-0.14,0.34-0.28,0.64-0.42,0.9
						c-0.14,0.26-0.29,0.39-0.42,0.39c-0.15,0-0.26-0.19-0.31-0.58c-0.05-0.39-0.08-0.89-0.08-1.5c0-0.61,0.02-1.27,0.07-1.99
						c0.05-0.72,0.1-1.41,0.17-2.08c0.07-0.67,0.13-1.26,0.19-1.77c0.06-0.51,0.11-0.86,0.14-1.04c0.05-0.24-0.02-0.44-0.19-0.59
						c-0.18-0.15-0.38-0.24-0.61-0.25c-0.23-0.02-0.44,0.05-0.64,0.19c-0.2,0.15-0.3,0.4-0.3,0.77c0,0.38-0.04,0.94-0.11,1.69
						c-0.08,0.75-0.15,1.55-0.21,2.42c-0.23-0.27-0.5-0.43-0.8-0.48c-0.56-0.09-1.04-0.02-1.44,0.22c-0.4,0.24-0.71,0.57-0.95,0.99
						c-0.19,0.35-0.33,0.74-0.42,1.16c-0.04,0.15-0.09,0.33-0.17,0.56c-0.11,0.32-0.22,0.64-0.35,0.96
						c-0.13,0.32-0.26,0.6-0.39,0.83c-0.13,0.24-0.24,0.35-0.33,0.35c-0.12,0-0.2-0.14-0.24-0.41c-0.04-0.27-0.05-0.6-0.03-0.98
						c0.01-0.38,0.05-0.78,0.1-1.19c0.05-0.41,0.11-0.75,0.17-1.03c0.03-0.2-0.01-0.37-0.11-0.51c-0.11-0.14-0.24-0.25-0.41-0.32
						c-0.17-0.07-0.34-0.09-0.53-0.08c-0.18,0.02-0.34,0.09-0.46,0.23c-0.11-0.18-0.24-0.35-0.4-0.5c-0.16-0.15-0.35-0.25-0.56-0.3
						c-0.56-0.11-1.04-0.02-1.44,0.26C73.46,9,73.14,9.38,72.9,9.87c-0.09,0.19-0.17,0.4-0.24,0.61c-0.03,0.05-0.05,0.11-0.07,0.19
						c-0.03,0.18-0.11,0.45-0.23,0.81c-0.12,0.36-0.26,0.71-0.41,1.06c-0.15,0.35-0.3,0.66-0.45,0.93c-0.14,0.27-0.26,0.4-0.35,0.4
						c-0.14,0-0.22-0.12-0.25-0.37c-0.03-0.24-0.03-0.54,0-0.88c0.03-0.34,0.08-0.7,0.15-1.09c0.07-0.38,0.13-0.71,0.19-0.98
						c0.06-0.27,0.03-0.45-0.09-0.53c-0.12-0.08-0.27-0.11-0.46-0.1c-0.18,0.01-0.38,0.03-0.58,0.06c-0.21,0.03-0.35,0.02-0.45-0.02
						c0.12-0.29,0.17-0.55,0.14-0.79c-0.03-0.24-0.21-0.35-0.53-0.35c-0.18,0-0.35,0.06-0.49,0.17c-0.14,0.11-0.26,0.25-0.33,0.41
						c-0.08,0.16-0.11,0.33-0.09,0.51c0.02,0.18,0.09,0.34,0.23,0.48l-0.14,0.39c-0.04,0.09-0.05,0.16-0.04,0.23
						c-0.03,0.11-0.07,0.24-0.12,0.39c-0.11,0.32-0.22,0.64-0.35,0.96c-0.13,0.32-0.26,0.6-0.39,0.83
						c-0.13,0.24-0.24,0.35-0.33,0.35c-0.12,0-0.2-0.14-0.24-0.41c-0.04-0.27-0.05-0.6-0.03-0.98c0.01-0.38,0.05-0.78,0.1-1.19
						c0.05-0.41,0.11-0.75,0.17-1.03c0.03-0.2-0.01-0.37-0.11-0.51c-0.11-0.14-0.24-0.25-0.41-0.32c-0.17-0.07-0.34-0.09-0.53-0.08
						c-0.18,0.02-0.34,0.09-0.46,0.23c-0.11-0.18-0.24-0.35-0.4-0.5c-0.16-0.15-0.35-0.25-0.56-0.3c-0.56-0.11-1.04-0.02-1.44,0.26
						c-0.4,0.28-0.71,0.67-0.95,1.15c-0.24,0.49-0.39,1.04-0.47,1.64c-0.08,0.61-0.07,1.2,0.02,1.76c0.09,0.56,0.27,1.06,0.53,1.48
						c0.26,0.43,0.61,0.7,1.05,0.82c0.24,0.06,0.53,0.04,0.85-0.07c0.33-0.14,0.61-0.35,0.82-0.65c0.21-0.3,0.38-0.63,0.5-0.99
						c0.2,0.41,0.52,0.68,0.96,0.8c0.27,0.08,0.53,0.05,0.77-0.09c0.24-0.14,0.45-0.33,0.64-0.58c0.19-0.25,0.36-0.54,0.5-0.87
						c0.14-0.33,0.27-0.64,0.38-0.95c0.11-0.3,0.19-0.58,0.26-0.83c0.07-0.25,0.12-0.42,0.15-0.51c0.01-0.04,0.02-0.08,0.02-0.11
						c0.06,0,0.12,0,0.18,0c0.08,0,0.15-0.01,0.23-0.02c-0.12,0.37-0.22,0.79-0.29,1.28c-0.07,0.49-0.08,0.95-0.03,1.38
						c0.05,0.43,0.15,0.81,0.32,1.12c0.17,0.31,0.43,0.48,0.8,0.49c0.32,0.02,0.61-0.06,0.87-0.24c0.26-0.17,0.49-0.41,0.71-0.7
						c0.13-0.18,0.25-0.37,0.36-0.57c0.1,0.49,0.26,0.92,0.49,1.3c0.26,0.43,0.61,0.7,1.05,0.82c0.24,0.06,0.53,0.04,0.85-0.07
						c0.33-0.14,0.61-0.35,0.82-0.65c0.21-0.3,0.38-0.63,0.5-0.99c0.2,0.41,0.52,0.68,0.96,0.8c0.27,0.08,0.53,0.05,0.77-0.09
						c0.24-0.14,0.45-0.33,0.64-0.58c0.19-0.25,0.36-0.54,0.5-0.87c0.01-0.01,0.01-0.03,0.02-0.04c0.1,0.33,0.24,0.62,0.43,0.89
						c0.26,0.37,0.61,0.61,1.05,0.72c0.24,0.09,0.53,0.08,0.87-0.05c0.3-0.11,0.56-0.27,0.77-0.5c0.21-0.23,0.37-0.49,0.49-0.78
						c0.11,0.46,0.25,0.83,0.45,1.11c0.19,0.28,0.46,0.42,0.81,0.42c0.47,0,0.88-0.18,1.22-0.55c0.29-0.31,0.53-0.65,0.72-1.02
						c0.05,0.24,0.13,0.47,0.24,0.67c0.17,0.33,0.47,0.55,0.88,0.67c0.27,0.08,0.53,0.05,0.75-0.09c0.23-0.14,0.44-0.33,0.63-0.58
						c0.19-0.25,0.36-0.54,0.5-0.87c0.14-0.33,0.27-0.64,0.38-0.95c0.11-0.3,0.19-0.58,0.26-0.83c0.02-0.09,0.04-0.16,0.06-0.23
						c0.02,0.01,0.04,0.01,0.06,0.02c0.2,0.07,0.4,0.16,0.61,0.27c0.21,0.11,0.41,0.25,0.62,0.41c0.21,0.16,0.38,0.34,0.51,0.54
						c0.17,0.23,0.29,0.45,0.37,0.67c0.08,0.22,0.11,0.42,0.09,0.59c-0.02,0.18-0.07,0.32-0.17,0.42c-0.1,0.11-0.22,0.16-0.38,0.16
						c-0.12,0-0.24-0.11-0.37-0.32c-0.12-0.21-0.14-0.56-0.07-1.03c0.03-0.23-0.04-0.39-0.22-0.48c-0.18-0.09-0.37-0.11-0.59-0.07
						c-0.22,0.05-0.43,0.15-0.62,0.32c-0.19,0.17-0.29,0.4-0.29,0.69c0,0.35,0.07,0.65,0.21,0.9c0.14,0.25,0.32,0.45,0.54,0.59
						c0.22,0.14,0.47,0.24,0.75,0.29c0.28,0.05,0.57,0.05,0.88,0c0.49-0.11,0.91-0.32,1.28-0.63c0.37-0.31,0.55-0.73,0.55-1.27
						c0-0.49-0.14-0.89-0.41-1.21c-0.27-0.32-0.58-0.57-0.91-0.77c-0.34-0.19-0.65-0.33-0.95-0.41c-0.3-0.08-0.46-0.13-0.49-0.13
						c0.05,0,0.15-0.02,0.32-0.06c0.17-0.04,0.37-0.08,0.61-0.13c0.24-0.05,0.49-0.1,0.75-0.16c0.27-0.06,0.52-0.12,0.77-0.18
						c0.27-0.08,0.43-0.22,0.47-0.42c0.04-0.21,0-0.4-0.1-0.59C93.3,8.96,93.15,8.81,92.95,8.7z M65.32,12.1
						c-0.07,0.46-0.17,0.89-0.3,1.27c-0.13,0.38-0.28,0.69-0.46,0.94c-0.18,0.24-0.36,0.35-0.56,0.32c-0.2-0.03-0.35-0.18-0.45-0.46
						c-0.1-0.27-0.16-0.61-0.18-0.99c-0.02-0.39-0.01-0.8,0.05-1.23c0.05-0.43,0.14-0.83,0.26-1.2c0.12-0.37,0.28-0.66,0.47-0.88
						c0.19-0.22,0.41-0.31,0.65-0.26c0.17,0.03,0.29,0.17,0.38,0.41c0.08,0.24,0.14,0.5,0.17,0.75
						C65.4,11.19,65.39,11.63,65.32,12.1z M75.85,12.1c-0.07,0.46-0.17,0.89-0.3,1.27c-0.13,0.38-0.28,0.69-0.46,0.94
						c-0.18,0.24-0.36,0.35-0.56,0.32c-0.2-0.03-0.35-0.18-0.45-0.46c-0.1-0.27-0.16-0.61-0.18-0.99c-0.02-0.39-0.01-0.8,0.05-1.23
						c0.05-0.43,0.14-0.83,0.26-1.2c0.12-0.37,0.28-0.66,0.47-0.88c0.19-0.22,0.41-0.31,0.65-0.26c0.17,0.03,0.29,0.17,0.38,0.41
						c0.08,0.24,0.14,0.5,0.17,0.75C75.93,11.19,75.92,11.63,75.85,12.1z M82.37,11.65c-0.06,0.41-0.16,0.78-0.29,1.12
						c-0.13,0.34-0.28,0.61-0.46,0.82c-0.18,0.21-0.36,0.3-0.56,0.27c-0.2-0.03-0.35-0.16-0.46-0.4c-0.11-0.24-0.17-0.53-0.19-0.87
						c-0.02-0.34-0.01-0.7,0.05-1.09c0.05-0.38,0.14-0.73,0.26-1.04c0.12-0.31,0.28-0.57,0.47-0.77c0.19-0.2,0.41-0.27,0.65-0.23
						c0.17,0.03,0.29,0.15,0.38,0.37c0.08,0.21,0.14,0.43,0.17,0.64C82.44,10.85,82.43,11.24,82.37,11.65z"/>
					<path class="st16" d="M99.94,10.5c-0.06-0.08-0.14-0.13-0.23-0.15c-0.09-0.02-0.19,0-0.29,0.05c-0.1,0.05-0.17,0.14-0.22,0.27
						c-0.03,0.11-0.1,0.28-0.21,0.51c-0.11,0.24-0.24,0.49-0.39,0.78c-0.15,0.28-0.33,0.58-0.53,0.88c-0.2,0.3-0.4,0.57-0.62,0.8
						c-0.21,0.23-0.43,0.41-0.66,0.54c-0.23,0.13-0.44,0.16-0.64,0.1c-0.15-0.05-0.27-0.15-0.35-0.32
						c-0.08-0.17-0.14-0.37-0.18-0.62c-0.04-0.24-0.05-0.52-0.05-0.82c0.01-0.3,0.03-0.62,0.08-0.94c0.17-0.01,0.36-0.04,0.58-0.07
						c0.22-0.03,0.44-0.08,0.65-0.15c0.21-0.07,0.41-0.16,0.59-0.26c0.18-0.11,0.33-0.24,0.46-0.41c0.15-0.2,0.22-0.47,0.19-0.82
						c-0.02-0.35-0.11-0.69-0.26-1.03c-0.15-0.33-0.37-0.63-0.65-0.88c-0.28-0.25-0.61-0.38-0.97-0.38c-0.38,0-0.73,0.19-1.04,0.57
						c-0.31,0.38-0.57,0.86-0.78,1.44c-0.21,0.58-0.34,1.2-0.41,1.86c-0.07,0.66-0.05,1.28,0.06,1.86c0.11,0.58,0.31,1.06,0.62,1.44
						c0.3,0.38,0.73,0.57,1.28,0.57c0.46,0,0.87-0.1,1.24-0.3c0.37-0.2,0.7-0.45,0.99-0.74c0.29-0.3,0.54-0.62,0.74-0.98
						c0.21-0.36,0.38-0.7,0.53-1.04c0.14-0.33,0.25-0.64,0.33-0.9c0.08-0.27,0.13-0.45,0.16-0.54C100.02,10.69,100,10.58,99.94,10.5
						z M96.19,9.24c0.12-0.34,0.24-0.54,0.34-0.58c0.06-0.03,0.12,0.02,0.17,0.14c0.05,0.12,0.09,0.27,0.11,0.46
						c0.02,0.18,0.03,0.36,0.01,0.54c-0.02,0.18-0.05,0.31-0.11,0.4c-0.08,0.12-0.2,0.2-0.37,0.24c-0.17,0.04-0.34,0.06-0.5,0.06
						C95.96,10,96.07,9.58,96.19,9.24z"/>
				</g>
			</g>
		</g>
	</g>
	<g>
		<path class="st16" d="M17.76,20.34v1.12h1.09v-1.12h0.66v2.92h-0.66v-1.22h-1.09v1.22H17.1v-2.92H17.76z"/>
		<path class="st16" d="M24.2,21.77c0,0.96-0.58,1.54-1.43,1.54c-0.87,0-1.37-0.65-1.37-1.48c0-0.87,0.56-1.53,1.42-1.53
			C23.71,20.3,24.2,20.97,24.2,21.77z M22.09,21.81c0,0.57,0.27,0.97,0.71,0.97c0.45,0,0.7-0.42,0.7-0.99
			c0-0.52-0.25-0.97-0.71-0.97C22.35,20.82,22.09,21.24,22.09,21.81z"/>
		<path class="st16" d="M26.52,20.9h-0.78v-0.55h2.24v0.55h-0.8v2.36h-0.66V20.9z"/>
		<path class="st16" d="M31.5,22.03h-1.07v0.69h1.2v0.54h-1.86v-2.92h1.8v0.54h-1.14v0.61h1.07V22.03z"/>
		<path class="st16" d="M33.52,20.34h0.66v2.36h1.16v0.55h-1.82V20.34z"/>
		<path class="st16" d="M41.35,23.26c-0.06-0.06-0.12-0.13-0.19-0.21c-0.19,0.15-0.45,0.26-0.8,0.26c-0.71,0-1.02-0.42-1.02-0.83
			c0-0.39,0.22-0.66,0.55-0.83v-0.02c-0.13-0.14-0.22-0.35-0.22-0.56c0-0.37,0.29-0.77,0.87-0.77c0.45,0,0.79,0.26,0.79,0.68
			c0,0.29-0.17,0.55-0.58,0.75l0,0.02c0.17,0.19,0.35,0.4,0.49,0.55c0.12-0.18,0.21-0.45,0.25-0.71h0.59
			c-0.08,0.44-0.23,0.82-0.48,1.11c0.16,0.19,0.33,0.38,0.51,0.57H41.35z M40.45,22.83c0.17,0,0.31-0.06,0.4-0.15
			c-0.18-0.18-0.42-0.45-0.66-0.71c-0.12,0.09-0.23,0.21-0.23,0.4C39.96,22.62,40.15,22.83,40.45,22.83L40.45,22.83z M40.52,20.71
			c-0.16,0-0.26,0.15-0.26,0.3c0,0.15,0.07,0.28,0.2,0.42c0.21-0.15,0.32-0.26,0.32-0.43C40.78,20.86,40.7,20.71,40.52,20.71
			L40.52,20.71z"/>
		<path class="st16" d="M46.19,20.38c0.17-0.03,0.52-0.06,0.85-0.06c0.4,0,0.65,0.04,0.86,0.16c0.2,0.11,0.35,0.31,0.35,0.57
			c0,0.26-0.15,0.5-0.48,0.62v0.01c0.33,0.09,0.58,0.34,0.58,0.72c0,0.26-0.12,0.47-0.3,0.62c-0.21,0.17-0.57,0.26-1.15,0.26
			c-0.32,0-0.57-0.02-0.71-0.04V20.38z M46.84,21.5h0.22c0.35,0,0.53-0.14,0.53-0.36c0-0.22-0.17-0.34-0.47-0.34
			c-0.14,0-0.22,0.01-0.28,0.02V21.5z M46.84,22.79c0.06,0.01,0.14,0.01,0.26,0.01c0.3,0,0.56-0.12,0.56-0.42
			c0-0.29-0.26-0.41-0.59-0.41h-0.23V22.79z"/>
		<path class="st16" d="M50.9,20.34v1.68c0,0.5,0.19,0.76,0.53,0.76c0.35,0,0.54-0.24,0.54-0.76v-1.68h0.66v1.64
			c0,0.9-0.45,1.33-1.22,1.33c-0.74,0-1.17-0.41-1.17-1.34v-1.63H50.9z"/>
		<path class="st16" d="M54.64,23.26v-2.92h0.77l0.61,1.07c0.17,0.31,0.35,0.67,0.48,1h0.01c-0.04-0.39-0.06-0.78-0.06-1.22v-0.85
			h0.61v2.92h-0.69l-0.62-1.12c-0.17-0.31-0.36-0.69-0.51-1.03l-0.01,0c0.02,0.39,0.03,0.8,0.03,1.27v0.88H54.64z"/>
		<path class="st16" d="M61.51,23.13c-0.2,0.07-0.59,0.16-0.97,0.16c-0.53,0-0.92-0.13-1.19-0.39c-0.27-0.25-0.42-0.63-0.41-1.06
			c0-0.97,0.71-1.52,1.67-1.52c0.38,0,0.67,0.07,0.81,0.14l-0.14,0.53c-0.16-0.07-0.36-0.13-0.68-0.13c-0.55,0-0.96,0.31-0.96,0.94
			c0,0.6,0.38,0.96,0.92,0.96c0.15,0,0.27-0.02,0.32-0.04v-0.61h-0.45v-0.52h1.09V23.13z"/>
		<path class="st16" d="M64.15,22.51l-0.21,0.75h-0.68l0.89-2.92h0.87l0.9,2.92h-0.71l-0.23-0.75H64.15z M64.88,22.02L64.7,21.4
			c-0.05-0.17-0.1-0.39-0.15-0.56h-0.01c-0.04,0.17-0.09,0.39-0.13,0.56l-0.17,0.62H64.88z"/>
		<path class="st16" d="M67.75,20.34h0.66v2.36h1.16v0.55h-1.82V20.34z"/>
		<path class="st16" d="M73.91,21.77c0,0.96-0.58,1.54-1.43,1.54c-0.87,0-1.37-0.65-1.37-1.48c0-0.87,0.56-1.53,1.42-1.53
			C73.42,20.3,73.91,20.97,73.91,21.77z M71.8,21.81c0,0.57,0.27,0.97,0.71,0.97c0.45,0,0.7-0.42,0.7-0.99
			c0-0.52-0.25-0.97-0.71-0.97C72.06,20.82,71.8,21.24,71.8,21.81z"/>
		<path class="st16" d="M76.23,23.26l-0.69-2.92h0.71l0.22,1.2c0.07,0.35,0.13,0.73,0.17,1.02h0.01c0.05-0.32,0.12-0.67,0.19-1.03
			l0.25-1.19h0.7l0.23,1.23c0.07,0.34,0.11,0.65,0.16,0.98h0.01c0.04-0.32,0.11-0.67,0.17-1.01l0.24-1.19h0.67l-0.75,2.92h-0.71
			l-0.25-1.25c-0.06-0.29-0.1-0.57-0.14-0.9h-0.01c-0.05,0.33-0.1,0.61-0.17,0.9l-0.28,1.25H76.23z"/>
		<path class="st16" d="M81.03,22.58c0.18,0.09,0.45,0.18,0.73,0.18c0.3,0,0.46-0.13,0.46-0.32c0-0.18-0.14-0.29-0.49-0.41
			c-0.48-0.17-0.8-0.44-0.8-0.86c0-0.5,0.42-0.88,1.1-0.88c0.33,0,0.57,0.07,0.74,0.15l-0.15,0.53c-0.12-0.06-0.32-0.14-0.61-0.14
			c-0.29,0-0.42,0.13-0.42,0.28c0,0.19,0.16,0.27,0.54,0.41c0.52,0.19,0.76,0.46,0.76,0.87c0,0.49-0.38,0.91-1.18,0.91
			c-0.33,0-0.66-0.09-0.83-0.18L81.03,22.58z"/>
	</g>
</g>
</svg>
